<?xml version="1.0" standalone="no"?>
<!DOCTYPE svg PUBLIC "-//W3C//DTD SVG 20010904//EN"
 "http://www.w3.org/TR/2001/REC-SVG-20010904/DTD/svg10.dtd">
<svg version="1.0" xmlns="http://www.w3.org/2000/svg"
 width="1080.000000pt" height="1080.000000pt" viewBox="0 0 1080.000000 1080.000000"
 preserveAspectRatio="xMidYMid meet">

<g transform="translate(0.000000,1080.000000) scale(0.100000,-0.100000)"
fill="#000000" stroke="none">
<path d="M4383 6650 c-32 -19 -67 -64 -158 -202 -84 -128 -161 -298 -244 -541
l-81 -238 -129 -172 c-139 -184 -171 -220 -213 -243 -34 -17 -38 -18 -38 0 0
17 77 216 119 308 17 37 31 77 31 88 0 29 -37 47 -110 54 -83 8 -98 22 -75 67
10 18 24 39 32 47 20 20 12 45 -18 56 -79 27 -163 -72 -132 -155 9 -24 6 -35
-26 -86 -112 -179 -209 -303 -239 -303 -12 0 -14 11 -9 68 11 127 25 191 61
270 42 93 44 111 13 140 -34 32 -79 29 -122 -9 -20 -18 -37 -30 -38 -28 -2 2
-12 23 -22 47 -22 52 -67 92 -102 92 -32 0 -113 -50 -152 -96 -69 -78 -133
-258 -133 -371 1 -98 32 -143 100 -143 42 0 48 4 109 68 36 37 82 96 104 132
47 78 84 126 74 95 -54 -163 -42 -296 30 -353 52 -41 108 -23 172 55 60 72
114 157 168 261 42 83 50 92 69 85 11 -4 38 -8 59 -8 20 0 37 -1 37 -3 0 -4
-64 -147 -101 -229 -26 -56 -34 -131 -20 -176 22 -67 100 -109 131 -72 7 8 17
15 22 15 5 0 34 19 64 43 55 42 126 124 205 237 23 33 44 59 46 57 2 -2 -4
-37 -12 -77 -9 -41 -16 -118 -16 -173 0 -87 3 -106 26 -153 41 -83 111 -107
193 -65 67 34 194 183 296 346 l53 83 12 -35 c29 -79 137 -146 208 -129 44 11
153 86 168 116 8 15 25 34 38 43 13 9 45 47 70 86 45 67 49 70 94 76 113 16
167 41 145 67 -10 13 -22 13 -92 -3 -44 -9 -80 -15 -80 -13 0 3 9 41 21 86 25
94 22 172 -6 209 -25 34 -84 78 -112 85 -59 15 -135 -45 -180 -142 -17 -38
-31 -54 -49 -58 -67 -17 -137 -89 -206 -211 -118 -209 -281 -442 -348 -499
-35 -29 -71 -34 -89 -12 -15 18 -17 81 -8 201 8 121 64 313 106 368 78 104
291 425 333 504 26 49 61 123 78 165 52 134 37 243 -39 283 -39 20 -49 19 -88
-5z m80 -93 c15 -39 -50 -219 -135 -374 -28 -51 -56 -89 -61 -86 -6 3 -7 1 -3
-5 3 -6 -25 -62 -64 -124 -38 -62 -70 -110 -70 -107 0 16 115 342 153 437 56
135 76 174 116 230 31 42 55 53 64 29z m-223 -158 c-12 -23 -24 -38 -27 -35
-5 5 35 76 43 76 2 0 -5 -18 -16 -41z m670 -432 c13 -24 13 -37 -6 -129 -12
-57 -29 -120 -38 -142 -16 -38 -17 -39 -61 -34 -25 3 -52 12 -61 19 -41 34 20
225 91 288 42 36 54 36 75 -2z m-1983 -139 c6 -7 13 -31 16 -53 4 -22 9 -51
12 -65 4 -20 -9 -45 -60 -115 -79 -111 -143 -185 -157 -185 -15 0 -2 115 21
181 29 85 98 216 123 233 27 19 33 20 45 4z m1789 -169 c16 -11 48 -24 71 -30
42 -11 42 -12 29 -38 -32 -61 -107 -149 -151 -179 -63 -42 -121 -45 -131 -7
-3 14 -1 47 6 73 13 53 71 192 96 230 l16 24 18 -27 c10 -15 31 -36 46 -46z"/>
<path d="M7304 6656 c-29 -13 -110 -109 -139 -166 -7 -14 -29 -49 -48 -78 -65
-96 -145 -275 -221 -495 -60 -171 -84 -229 -116 -271 -22 -29 -40 -58 -40 -64
0 -6 -30 -37 -67 -67 -49 -41 -75 -55 -93 -53 -22 3 -25 7 -23 39 2 39 70 219
82 219 4 0 13 11 19 25 14 30 -2 50 -54 64 -69 19 -106 -20 -134 -139 -33
-140 -32 -165 9 -222 36 -50 82 -78 128 -78 32 0 82 47 147 138 21 28 39 52
40 52 2 0 -5 -35 -16 -77 -29 -115 -35 -286 -14 -351 31 -93 107 -134 191
-102 63 24 222 208 321 369 l39 65 5 -70 c6 -80 23 -112 80 -150 62 -41 106
-42 165 -2 27 18 69 58 93 88 41 52 156 194 173 214 4 5 6 0 3 -10 -37 -162
-64 -303 -64 -339 0 -84 43 -145 111 -160 23 -5 37 -1 63 19 41 31 184 208
288 356 l76 110 0 -69 c0 -106 30 -151 100 -151 42 0 48 4 109 68 36 37 82 96
104 132 47 78 84 126 74 95 -54 -163 -42 -296 30 -353 67 -53 134 -11 246 153
50 74 149 264 149 287 0 38 -25 11 -112 -118 -99 -147 -172 -234 -195 -234
-13 0 -15 10 -10 68 11 127 25 191 61 270 42 93 44 111 13 140 -34 32 -79 29
-122 -9 -20 -18 -37 -30 -38 -28 -2 2 -12 23 -22 47 -22 52 -67 92 -102 92
-30 0 -106 -46 -144 -87 -15 -15 -43 -57 -64 -93 -51 -89 -267 -370 -384 -500
-22 -25 -45 -51 -51 -57 -15 -18 -37 -16 -44 3 -17 44 103 445 206 689 30 72
61 147 67 168 14 43 16 43 156 52 101 7 125 15 125 43 0 13 -15 14 -110 9 -60
-4 -111 -3 -114 1 -6 10 110 221 138 252 13 14 36 45 51 68 25 42 26 45 9 63
-13 14 -30 19 -68 19 -77 -1 -108 -24 -156 -120 -13 -24 -35 -60 -51 -80 -15
-19 -42 -69 -59 -110 -18 -41 -37 -80 -43 -87 -8 -8 -73 -16 -172 -22 -168
-11 -235 -25 -215 -45 7 -7 67 -10 184 -9 l173 1 -44 -116 c-25 -65 -48 -130
-52 -147 -13 -51 -43 -99 -136 -221 -110 -145 -184 -225 -243 -264 -93 -62
-115 -30 -86 127 13 67 25 109 34 114 8 4 36 17 61 29 63 28 172 130 198 183
12 24 21 57 21 74 0 46 -41 89 -96 101 -116 25 -188 -34 -304 -248 -178 -327
-367 -580 -435 -580 -40 0 -48 29 -42 164 4 97 12 146 41 249 33 119 40 135
99 215 36 48 97 137 136 197 38 61 87 133 107 160 71 98 157 292 169 382 15
114 -67 206 -151 169z m76 -110 c0 -47 -43 -164 -111 -304 -39 -78 -74 -140
-78 -138 -4 3 -8 -1 -8 -8 0 -16 -123 -219 -129 -213 -6 6 83 271 132 389 52
129 98 222 132 266 30 39 62 43 62 8z m-231 -153 c-40 -72 -59 -94 -29 -33 26
52 50 90 57 90 2 0 -10 -26 -28 -57z m537 -505 c15 -24 4 -92 -22 -130 -27
-38 -91 -95 -131 -117 -21 -11 -20 -6 13 71 39 93 100 188 120 188 7 0 16 -5
20 -12z m385 -55 c-12 -20 -14 -14 -5 12 4 9 9 14 11 11 3 -2 0 -13 -6 -23z
m566 -5 c6 -7 13 -31 16 -53 4 -22 9 -51 12 -65 4 -20 -9 -45 -60 -115 -79
-111 -143 -185 -157 -185 -15 0 -2 115 21 181 29 85 98 216 123 233 27 19 33
20 45 4z m-642 -204 c-35 -98 -64 -174 -65 -169 -1 28 118 361 126 352 2 -2
-25 -84 -61 -183z m-629 -116 c-4 -24 -13 -63 -21 -88 l-15 -45 6 60 c5 57 21
115 31 115 3 0 2 -19 -1 -42z"/>
<path d="M2395 6570 c-22 -11 -66 -46 -97 -77 -57 -59 -198 -249 -198 -268 0
-5 -15 -27 -33 -47 -83 -95 -238 -485 -257 -649 -23 -200 -9 -259 82 -348 102
-100 206 -133 286 -92 113 59 255 222 308 352 27 67 42 173 26 183 -5 3 -40
-40 -78 -96 -129 -194 -302 -338 -405 -338 -31 0 -42 6 -63 33 -23 30 -26 44
-26 114 0 98 22 188 96 393 73 204 154 368 254 517 87 130 138 183 209 215 39
18 45 18 59 5 8 -9 15 -29 14 -45 -1 -32 -58 -189 -71 -194 -7 -3 -81 -124
-81 -134 0 -10 48 -2 86 15 125 57 182 174 149 305 -36 142 -151 210 -260 156z
m-167 -357 c-23 -38 -79 -142 -125 -233 -46 -90 -83 -161 -83 -156 0 19 84
204 127 280 44 77 110 176 119 176 2 0 -15 -30 -38 -67z"/>
<path d="M6178 6510 c-47 -14 -115 -68 -190 -151 -40 -44 -75 -85 -77 -92 -2
-7 -20 -30 -40 -52 -20 -22 -57 -74 -83 -115 -47 -76 -143 -301 -154 -362 -4
-18 -14 -42 -23 -52 -35 -42 -265 -175 -274 -158 -12 22 -47 218 -47 269 0 18
8 48 17 67 23 49 7 86 -38 86 -24 0 -42 -11 -76 -45 l-45 -44 5 -68 c7 -101
24 -212 41 -268 9 -27 16 -55 16 -62 0 -7 -37 -37 -83 -67 -89 -58 -171 -138
-188 -182 -5 -15 -7 -41 -3 -58 19 -90 77 -130 189 -130 105 0 165 40 214 144
23 50 26 65 24 163 l-1 107 47 25 c27 13 85 49 129 79 45 31 83 52 85 48 2 -4
7 -20 11 -37 22 -93 112 -175 192 -175 79 0 174 87 310 284 63 91 63 91 -13
-124 -155 -438 -273 -688 -362 -763 -61 -51 -106 -26 -98 56 6 65 99 250 172
342 61 78 70 93 61 102 -12 12 -55 -21 -163 -126 -120 -117 -170 -194 -180
-279 -14 -125 78 -222 212 -222 53 0 58 2 103 48 26 26 63 72 83 102 53 80
175 324 203 405 13 39 64 167 114 285 49 118 96 240 106 270 10 30 35 90 57
132 51 99 51 125 -1 172 -57 52 -81 48 -123 -16 -94 -147 -394 -486 -458 -518
-66 -34 -99 -22 -99 37 0 72 134 362 243 523 81 122 200 261 249 289 38 23 42
23 53 8 10 -14 10 -30 0 -80 -15 -81 -33 -121 -84 -188 -41 -54 -51 -79 -31
-79 46 0 205 133 235 197 20 41 15 125 -9 171 -44 83 -143 128 -228 102z
m-255 -291 c-10 -17 -24 -36 -32 -42 -8 -7 -2 7 14 31 32 49 45 57 18 11z
m-93 -139 c-6 -11 -13 -20 -16 -20 -2 0 0 9 6 20 6 11 13 20 16 20 2 0 0 -9
-6 -20z m-93 -169 c-23 -49 -44 -87 -46 -85 -5 4 76 174 83 174 2 0 -14 -40
-37 -89z m624 -118 c-12 -20 -14 -14 -5 12 4 9 9 14 11 11 3 -2 0 -13 -6 -23z
m-41 -108 c-18 -42 -34 -74 -36 -72 -2 2 10 38 27 81 18 42 34 75 36 72 2 -2
-10 -38 -27 -81z m-1103 -381 c-7 -67 -49 -142 -91 -163 -48 -23 -100 -25
-116 -6 -12 15 -11 23 10 63 18 34 46 62 105 104 44 32 84 58 89 58 5 0 6 -25
3 -56z m57 -185 c-21 -23 -73 -53 -80 -46 -3 2 9 10 25 17 16 6 37 20 47 31 9
10 19 19 22 19 3 0 -3 -9 -14 -21z"/>
<path d="M6670 6183 c-23 -9 -30 -26 -24 -55 7 -34 -24 -122 -53 -155 -13 -13
-23 -31 -23 -39 0 -24 19 -54 35 -54 17 0 105 79 105 94 0 5 -12 -1 -27 -15
-24 -22 -24 -20 5 17 18 23 32 46 32 51 0 5 14 20 30 35 17 14 30 35 30 47 0
44 -69 90 -110 74z"/>
</g>
</svg>
